<svg id="Layer_1" data-name="Layer 1" xmlns="http://www.w3.org/2000/svg" viewBox="0 0 68.25 81.75"><defs><style>.cls-1{fill:transparent;}.cls-2{fill:#7da5f7;}.cls-3{fill:#7ca5f7;}</style></defs><path class="cls-1" d="M0,0H68.25V81.75H0ZM49,29.33A34.42,34.42,0,0,0,39.67,4.47C37.73,2.35,35.52,1,32.48,1.93,26.92,3.63,25.74,9,29.79,14.35,37.52,24.49,37,34,28.46,43.34c-7.25,7.94-10.09,17.39-9.07,28,.37,3.88,2.81,6.41,6.2,6.74,4.66.45,8.07-2.62,7.64-7.69a23.34,23.34,0,0,1,6.61-18.91C45.77,45.16,49.12,37.6,49,29.33ZM66.85,67.4C67,59.65,61.43,53.61,54,53.5a13.46,13.46,0,1,0-.84,26.9C61,80.52,66.7,75.06,66.85,67.4ZM14.73,14.74C7,14.73,1.38,20.31,1.38,28A13.33,13.33,0,0,0,14.87,41.63,13.46,13.46,0,0,0,28.16,28.46,13.3,13.3,0,0,0,14.73,14.74Z"/><path class="cls-2" d="M49,29.33c.14,8.27-3.21,15.83-9.14,22.18a23.34,23.34,0,0,0-6.61,18.91c.43,5.07-3,8.14-7.64,7.69-3.39-.33-5.83-2.86-6.2-6.74-1-10.64,1.82-20.09,9.07-28,8.58-9.38,9.06-18.85,1.33-29C25.74,9,26.92,3.63,32.48,1.93c3-.93,5.25.42,7.19,2.54A34.42,34.42,0,0,1,49,29.33Z"/><path class="cls-3" d="M66.85,67.4c-.15,7.66-5.88,13.12-13.66,13A13.46,13.46,0,1,1,54,53.5C61.43,53.61,67,59.65,66.85,67.4Z"/><path class="cls-3" d="M14.73,14.74A13.3,13.3,0,0,1,28.16,28.46,13.46,13.46,0,0,1,14.87,41.63,13.33,13.33,0,0,1,1.38,28C1.38,20.31,7,14.73,14.73,14.74Z"/></svg>
